<?xml version="1.0" encoding="UTF-8"?>
<svg width="32px" height="32px" viewBox="0 0 32 32" version="1.1" xmlns="http://www.w3.org/2000/svg">
    <g stroke="none" stroke-width="1" fill="none" fill-rule="evenodd">
        <!-- Background Paper with rounded corners -->
        <path d="M26,4 L6,4 C4.89,4 4,4.89 4,6 L4,26 C4,27.11 4.89,28 6,28 L26,28 C27.11,28 28,27.11 28,26 L28,6 C28,4.89 27.11,4 26,4 Z" fill="#4B5563"/>
        
        <!-- Lines representing text (white) -->
        <line x1="9" y1="10" x2="23" y2="10" stroke="#FFFFFF" stroke-width="2" stroke-linecap="round"/>
        <line x1="9" y1="16" x2="23" y2="16" stroke="#FFFFFF" stroke-width="2" stroke-linecap="round"/>
        <line x1="9" y1="22" x2="17" y2="22" stroke="#FFFFFF" stroke-width="2" stroke-linecap="round"/>
        
        <!-- Dollar sign (white) -->
        <path d="M20.5,19.5 L20.5,24.5 M19,21 L22,21 L22,22.5 L19,22.5" stroke="#FFFFFF" stroke-width="2" stroke-linecap="round" stroke-linejoin="round"/>
    </g>
</svg>
