<?xml version="1.0" encoding="UTF-8"?>
<svg width="24px" height="24px" viewBox="0 0 24 24" version="1.1" xmlns="http://www.w3.org/2000/svg">
    <g stroke="none" stroke-width="1" fill="none" fill-rule="evenodd">
        <!-- Background Paper -->
        <path d="M19,3 L5,3 C3.89,3 3,3.89 3,5 L3,19 C3,20.11 3.89,21 5,21 L19,21 C20.11,21 21,20.11 21,19 L21,5 C21,3.89 20.11,3 19,3 Z" fill="#FFFFFF" stroke="#4B5563" stroke-width="1.5"/>
        
        <!-- Lines representing text -->
        <line x1="7" y1="8" x2="17" y2="8" stroke="#4B5563" stroke-width="1.5" stroke-linecap="round"/>
        <line x1="7" y1="12" x2="17" y2="12" stroke="#4B5563" stroke-width="1.5" stroke-linecap="round"/>
        <line x1="7" y1="16" x2="13" y2="16" stroke="#4B5563" stroke-width="1.5" stroke-linecap="round"/>
        
        <!-- Dollar sign -->
        <path d="M15.5,14.5 L15.5,17.5 M14.5,15.5 L16.5,15.5 L16.5,16.5 L14.5,16.5" stroke="#4B5563" stroke-width="1.5" stroke-linecap="round" stroke-linejoin="round"/>
    </g>
</svg>
